<svg width="35" height="34" xmlns="http://www.w3.org/2000/svg" xmlns:xlink="http://www.w3.org/1999/xlink" xml:space="preserve" overflow="hidden"><defs><clipPath id="clip0"><rect x="410" y="278" width="35" height="34"/></clipPath></defs><g clip-path="url(#clip0)" transform="translate(-410 -278)"><path d="M16.7941 18.4806 16.7941 18.4806C13.9279 18.4806 11.5827 16.1354 11.5827 13.2692L11.5827 11.4002C11.5827 8.53404 13.9279 6.18883 16.7941 6.18883L16.7941 6.18883C19.6603 6.18883 22.0056 8.53404 22.0056 11.4002L22.0056 13.2692C22.0056 16.1358 19.6603 18.4806 16.7941 18.4806Z" fill="#FFFFFF" transform="matrix(1.02941 0 0 1 410.192 278.187)"/><path d="M19.7286 19.1968C18.8471 19.6532 17.8507 19.916 16.7941 19.916 15.7376 19.916 14.7412 19.6532 13.8596 19.1968 9.91974 19.785 6.87216 23.2039 6.87216 27.3006L6.87216 32.6911C6.87216 33.1845 7.27597 33.5879 7.76897 33.5879L25.8186 33.5879C26.3119 33.5879 26.7154 33.1841 26.7154 32.6911L26.7154 27.3006C26.7161 23.2039 23.6685 19.785 19.7286 19.1968Z" fill="#FFFFFF" transform="matrix(1.02941 0 0 1 410.192 278.187)"/><path d="M26.6008 13.0076C25.7193 13.464 24.7228 13.7268 23.6663 13.7268 23.6648 13.7268 23.6637 13.7268 23.6622 13.7268 23.5525 15.3734 22.8658 16.8621 21.798 17.9925 25.6626 19.3663 28.3955 23.0863 28.3955 27.3006L28.3955 27.3987 32.6915 27.3987C33.1848 27.3987 33.5887 26.9949 33.5887 26.5015L33.5887 21.1114C33.5883 17.0143 30.5407 13.5954 26.6008 13.0076Z" fill="#FFFFFF" transform="matrix(1.02941 0 0 1 410.192 278.187)"/><path d="M23.6663 0C20.9636 0 18.7262 2.08583 18.4795 4.72736 21.4652 5.48235 23.6846 8.1836 23.6846 11.4006L23.6846 12.2907C26.5422 12.2806 28.8773 9.94027 28.8773 7.08041L28.8773 5.21141C28.8777 2.34521 26.5325 0 23.6663 0Z" fill="#FFFFFF" transform="matrix(1.02941 0 0 1 410.192 278.187)"/><path d="M5.19312 27.3006C5.19312 23.0863 7.92571 19.3659 11.7902 17.9925 10.7225 16.8621 10.0354 15.373 9.92608 13.7268 9.92459 13.7268 9.92347 13.7268 9.92198 13.7268 8.86544 13.7268 7.86936 13.464 6.98748 13.0076 3.04758 13.5954 0 17.0143 0 21.1114L0 26.5019C0 26.9953 0.403806 27.3991 0.89718 27.3991L5.19312 27.3991 5.19312 27.3006Z" fill="#FFFFFF" transform="matrix(1.02941 0 0 1 410.192 278.187)"/><path d="M9.90332 12.2903 9.90332 11.4002C9.90332 8.18322 12.1224 5.48198 15.1084 4.72699 14.8621 2.08583 12.6247 0 9.92198 0 7.05578 0 4.71057 2.34521 4.71057 5.21141L4.71057 7.08041C4.71057 9.94027 7.0457 12.2802 9.90332 12.2903Z" fill="#FFFFFF" transform="matrix(1.02941 0 0 1 410.192 278.187)"/></g></svg>